  <svg xmlns="http://www.w3.org/2000/svg" viewBox="0 0 24 24" width="24" height="24">
    <path fill="#1DA1F2" d="M23.643 4.937c-.835.37-1.732.615-2.676.726.96-.576 1.698-1.489 2.047-2.578-.895.529-1.885.915-2.939 1.124-.84-.892-2.046-1.44-3.39-1.44-2.565 0-4.642 2.086-4.642 4.642 0 .364.041.719.12 1.06-3.86-.193-7.287-2.043-9.573-4.85-.4.687-.628 1.48-.628 2.324 0 1.607.817 3.023 2.058 3.86-.756-.024-1.466-.232-2.086-.578v.058c0 2.243 1.594 4.118 3.71 4.552-.387.105-.795.16-1.215.16-.297 0-.585-.028-.865-.082.586 1.831 2.283 3.162 4.293 3.198-1.573 1.235-3.556 1.972-5.713 1.972-.371 0-.738-.021-1.1-.065 2.046 1.313 4.49 2.08 7.106 2.08 8.5 0 13.166-7.054 13.166-13.166 0-.2 0-.399-.014-.598.903-.65 1.684-1.463 2.304-2.388z"/>
  </svg>
