      <svg
        xmlns="http://www.w3.org/2000/svg"
        viewBox="0 0 24 24"
        width="24"
        height="24"
      >
        <path
          fill="#1877F2"
          d="M22.675 0h-21.35C.597 0 0 .6 0 1.337v21.326C0 23.4.597 24 1.325 24h11.494v-9.294H9.69v-3.622h3.128V8.413c0-3.1 1.894-4.788 4.659-4.788 1.325 0 2.463.099 2.794.143v3.24h-1.918c-1.504 0-1.796.715-1.796 1.763v2.312h3.587l-.467 3.622h-3.12V24h6.116c.728 0 1.324-.6 1.324-1.337V1.337C24 .6 23.403 0 22.675 0z"
        />
        <path
          fill="#fff"
          d="M16.395 24v-9.294h3.12l.467-3.622h-3.587V8.772c0-1.048.292-1.763 1.796-1.763h1.918v-3.24c-.331-.044-1.469-.143-2.794-.143-2.765 0-4.659 1.688-4.659 4.788v2.587H9.69v3.622h3.129V24h3.576z"
        />
      </svg>