<svg xmlns="http://www.w3.org/2000/svg" viewBox="0 0 24 24" width="24" height="24">
  <path fill="#E1306C" d="M12 2.2c3.1 0 3.5 0 4.7.1 1.2.1 2 .3 2.4.5.6.2 1.1.5 1.6 1 .5.5.8 1 .9 1.6.2.4.4 1.2.5 2.4.1 1.2.1 1.6.1 4.7s0 3.5-.1 4.7c-.1 1.2-.3 2-.5 2.4-.2.6-.5 1.1-1 1.6-.5.5-1 .8-1.6.9-.4.2-1.2.4-2.4.5-1.2.1-1.6.1-4.7.1s-3.5 0-4.7-.1c-1.2-.1-2-.3-2.4-.5-.6-.2-1.1-.5-1.6-1-.5-.5-.8-1-.9-1.6-.2-.4-.4-1.2-.5-2.4-.1-1.2-.1-1.6-.1-4.7s0-3.5.1-4.7c.1-1.2.3-2 .5-2.4.2-.6.5-1.1 1-1.6.5-.5 1-.8 1.6-.9.4-.2 1.2-.4 2.4-.5 1.2-.1 1.6-.1 4.7-.1m0-2.2c-3.2 0-3.7 0-5 .1-1.3.1-2.3.3-3.1.6-.9.3-1.6.7-2.3 1.4-.7.7-1.1 1.4-1.4 2.3-.3.8-.5 1.8-.6 3.1-.1 1.3-.1 1.8-.1 5s0 3.7.1 5c.1 1.3.3 2.3.6 3.1.3.9.7 1.6 1.4 2.3.7.7 1.4 1.1 2.3 1.4.8.3 1.8.5 3.1.6 1.3.1 1.8.1 5 .1s3.7 0 5-.1c1.3-.1 2.3-.3 3.1-.6.9-.3 1.6-.7 2.3-1.4.7-.7 1.1-1.4 1.4-2.3.3-.8.5-1.8.6-3.1.1-1.3.1-1.8.1-5s0-3.7-.1-5c-.1-1.3-.3-2.3-.6-3.1-.3-.9-.7-1.6-1.4-2.3-.7-.7-1.4-1.1-2.3-1.4-.8-.3-1.8-.5-3.1-.6-1.3-.1-1.8-.1-5-.1z"/>
  <path fill="#E1306C" d="M12 5.8c-3.4 0-6.2 2.8-6.2 6.2s2.8 6.2 6.2 6.2 6.2-2.8 6.2-6.2-2.8-6.2-6.2-6.2zm0 10.2c-2.2 0-4-1.8-4-4s1.8-4 4-4 4 1.8 4 4-1.8 4-4 4z"/>
  <circle fill="#E1306C" cx="18.4" cy="5.6" r="1.4"/>
</svg>
